<svg xmlns="http://www.w3.org/2000/svg" xmlns:xlink="http://www.w3.org/1999/xlink" width="500" zoomAndPan="magnify" viewBox="0 0 375 374.999991" height="500" preserveAspectRatio="xMidYMid meet" version="1.0"><defs><clipPath id="b20599e034"><path d="M 8.773438 8.773438 L 366.523438 8.773438 L 366.523438 366.523438 L 8.773438 366.523438 Z M 8.773438 8.773438 " clip-rule="nonzero"/></clipPath></defs><g clip-path="url(#b20599e034)"><path fill="#a81612" d="M 366.53125 187.613281 C 366.53125 286.269531 286.3125 366.488281 187.65625 366.488281 C 89 366.488281 8.78125 286.269531 8.78125 187.613281 C 8.78125 88.957031 89 8.738281 187.65625 8.738281 C 286.3125 8.738281 366.53125 88.957031 366.53125 187.613281 Z M 366.53125 187.613281 " fill-opacity="1" fill-rule="nonzero"/></g><path fill="#ffffff" d="M 296.128906 187.613281 C 296.128906 247.476562 247.519531 296.089844 187.65625 296.089844 C 127.789062 296.089844 79.179688 247.476562 79.179688 187.613281 C 79.179688 127.75 127.789062 79.140625 187.65625 79.140625 C 247.519531 79.140625 296.128906 127.75 296.128906 187.613281 Z M 296.128906 187.613281 " fill-opacity="1" fill-rule="nonzero"/><path fill="#451400" d="M 287.988281 187.613281 C 287.988281 242.929688 242.96875 287.945312 187.65625 287.945312 C 132.339844 287.945312 87.320312 242.929688 87.320312 187.613281 C 87.320312 132.300781 132.339844 87.28125 187.65625 87.28125 C 242.96875 87.28125 287.988281 132.300781 287.988281 187.613281 Z M 287.988281 187.613281 " fill-opacity="1" fill-rule="nonzero"/><path fill="#ffffff" d="M 76.785156 142.355469 C 75.589844 144.992188 73.914062 147.386719 71.757812 149.300781 C 69.601562 151.214844 67.207031 152.652344 64.8125 153.371094 C 62.179688 154.328125 59.542969 154.570312 56.671875 154.570312 C 53.796875 154.328125 51.164062 153.851562 48.53125 152.414062 C 45.894531 151.214844 43.5 149.539062 41.585938 147.625 C 39.667969 145.707031 38.234375 143.3125 37.273438 140.917969 C 36.316406 138.523438 35.839844 135.652344 36.078125 133.019531 C 36.078125 130.144531 36.796875 127.269531 38.234375 124.398438 C 38.953125 122.722656 39.910156 121.285156 40.867188 119.847656 C 41.824219 118.648438 42.78125 117.453125 43.980469 116.496094 C 44.9375 115.539062 46.136719 114.820312 47.332031 114.101562 C 48.53125 113.382812 49.726562 112.902344 50.925781 112.425781 L 54.515625 120.328125 C 52.601562 121.042969 50.683594 122.242188 49.25 123.199219 C 47.8125 124.398438 46.613281 125.832031 45.65625 127.75 C 44.9375 129.1875 44.457031 130.863281 44.457031 132.539062 C 44.457031 134.214844 44.699219 135.652344 45.417969 137.089844 C 46.136719 138.523438 46.851562 139.960938 48.050781 140.917969 C 49.25 142.117188 50.683594 143.074219 52.121094 143.792969 C 53.796875 144.511719 55.472656 144.992188 57.148438 144.992188 C 58.828125 145.230469 60.503906 144.992188 61.9375 144.511719 C 63.375 144.03125 64.8125 143.3125 66.011719 142.355469 C 67.207031 141.398438 68.164062 139.960938 69.125 138.523438 C 70.082031 136.371094 70.558594 134.453125 70.558594 132.539062 C 70.558594 130.621094 70.082031 128.707031 69.363281 126.792969 L 77.265625 124.15625 L 78.703125 128.46875 C 78.941406 129.90625 79.179688 131.339844 79.179688 132.777344 C 79.179688 134.214844 78.941406 135.890625 78.703125 137.328125 C 78.222656 138.765625 77.742188 140.441406 76.785156 142.355469 Z M 76.785156 142.355469 " fill-opacity="1" fill-rule="nonzero"/><path fill="#ffffff" d="M 58.585938 88.238281 L 64.8125 81.773438 L 78.460938 95.421875 L 91.632812 81.773438 L 77.984375 67.886719 L 83.730469 62.617188 L 112.945312 91.351562 L 108.394531 97.339844 L 97.140625 87.042969 L 83.730469 99.972656 L 94.746094 110.507812 L 88.519531 117.214844 Z M 58.585938 88.238281 " fill-opacity="1" fill-rule="nonzero"/><path fill="#ffffff" d="M 108.15625 45.855469 L 115.097656 42.023438 L 134.734375 78.660156 L 127.789062 82.492188 Z M 108.15625 45.855469 " fill-opacity="1" fill-rule="nonzero"/><path fill="#ffffff" d="M 160.355469 49.207031 C 162.75 48.726562 164.667969 47.769531 165.625 46.332031 C 166.582031 44.898438 167.0625 43.460938 166.582031 41.785156 C 166.101562 39.867188 165.144531 38.433594 163.707031 37.714844 C 162.03125 36.996094 159.878906 36.753906 157.722656 37.234375 L 150.539062 38.671875 L 152.933594 50.644531 Z M 139.523438 32.445312 L 156.765625 29.09375 C 159.398438 28.613281 161.554688 28.613281 163.707031 28.851562 C 165.863281 29.09375 168.019531 29.8125 169.457031 30.769531 C 171.132812 31.726562 172.570312 32.925781 173.527344 34.601562 C 174.722656 36.039062 175.441406 37.953125 175.921875 39.867188 C 176.398438 42.261719 176.398438 44.179688 175.921875 46.09375 C 175.441406 48.011719 174.484375 49.6875 173.289062 51.121094 C 172.089844 52.558594 170.175781 53.757812 168.257812 54.714844 C 166.34375 55.671875 164.1875 56.390625 161.792969 56.871094 L 153.414062 58.546875 L 155.808594 71.238281 L 147.90625 72.675781 Z M 139.523438 32.445312 " fill-opacity="1" fill-rule="nonzero"/><path fill="#ffffff" d="M 217.109375 36.039062 C 215.191406 35.558594 213.515625 35.558594 211.839844 35.796875 C 210.164062 36.039062 208.726562 36.515625 207.289062 37.472656 C 205.851562 38.433594 204.894531 39.390625 203.9375 40.828125 C 202.980469 42.261719 202.261719 43.699219 202.023438 45.617188 C 201.542969 47.292969 201.542969 49.207031 201.78125 50.882812 C 202.023438 52.558594 202.5 54.234375 203.457031 55.671875 C 204.417969 57.109375 205.375 58.308594 206.8125 59.503906 C 208.25 60.703125 209.683594 61.417969 211.601562 61.898438 C 213.515625 62.378906 215.191406 62.378906 216.867188 62.136719 C 218.542969 61.898438 219.980469 61.179688 221.417969 60.460938 C 222.855469 59.503906 223.8125 58.546875 224.769531 57.109375 C 225.726562 55.671875 226.445312 54.234375 226.6875 52.320312 C 227.164062 50.644531 227.164062 48.726562 226.925781 47.050781 C 226.6875 45.375 226.207031 43.699219 225.25 42.261719 C 224.292969 40.828125 223.332031 39.628906 221.898438 38.433594 C 220.699219 37.472656 219.023438 36.515625 217.109375 36.039062 Z M 219.261719 27.894531 C 222.375 28.851562 225.25 30.050781 227.644531 31.964844 C 230.039062 33.882812 231.953125 35.796875 233.628906 38.191406 C 235.066406 40.585938 236.265625 43.222656 236.742188 46.09375 C 237.222656 48.96875 237.222656 51.839844 236.503906 54.714844 C 235.785156 57.828125 234.589844 60.460938 232.914062 62.617188 C 231.234375 64.773438 229.320312 66.6875 226.925781 68.125 C 224.53125 69.5625 221.898438 70.519531 219.023438 70.757812 C 216.148438 71.238281 213.039062 70.996094 209.683594 70.039062 C 206.570312 69.082031 203.699219 67.886719 201.304688 65.96875 C 198.910156 64.054688 196.992188 62.136719 195.316406 59.742188 C 193.878906 57.347656 192.683594 54.714844 192.203125 51.839844 C 191.726562 48.96875 191.726562 46.09375 192.445312 43.222656 C 193.164062 40.347656 194.359375 37.714844 196.035156 35.320312 C 197.710938 33.164062 199.628906 31.246094 202.023438 29.8125 C 204.417969 28.375 207.050781 27.417969 209.925781 27.175781 C 212.796875 26.699219 215.910156 26.9375 219.261719 27.894531 Z M 219.261719 27.894531 " fill-opacity="1" fill-rule="nonzero"/><path fill="#ffffff" d="M 265.476562 52.800781 L 253.027344 45.375 L 257.097656 39.390625 L 287.269531 57.347656 L 283.199219 63.574219 L 272.902344 56.871094 L 254.941406 86.082031 L 247.757812 82.011719 Z M 265.476562 52.800781 " fill-opacity="1" fill-rule="nonzero"/><path fill="#ffffff" d="M 304.269531 72.675781 L 309.777344 79.140625 L 283.675781 101.167969 L 298.285156 117.453125 L 291.820312 122.242188 L 273.140625 100.210938 Z M 304.269531 72.675781 " fill-opacity="1" fill-rule="nonzero"/><path fill="#ffffff" d="M 335.640625 116.015625 L 346.894531 144.511719 L 340.1875 146.90625 L 331.808594 126.3125 L 320.792969 130.621094 L 327.257812 147.144531 L 320.074219 149.539062 L 313.609375 133.019531 L 306.1875 135.890625 L 315.046875 157.203125 L 307.863281 159.597656 L 296.609375 130.382812 Z M 335.640625 116.015625 " fill-opacity="1" fill-rule="nonzero"/><path fill="#ffffff" d="M 49.488281 189.769531 C 49.488281 191.207031 48.769531 192.644531 47.332031 193.359375 C 45.894531 194.078125 44.457031 194.078125 43.023438 193.359375 C 41.585938 192.644531 40.867188 191.207031 40.867188 189.769531 C 40.867188 188.332031 41.585938 186.894531 43.023438 186.175781 C 44.457031 185.457031 45.894531 185.457031 47.332031 186.175781 C 48.769531 186.894531 49.488281 188.332031 49.488281 189.769531 Z M 49.488281 189.769531 " fill-opacity="1" fill-rule="nonzero"/><path fill="#ffffff" d="M 335.878906 189.769531 C 335.878906 191.207031 335.160156 192.644531 333.722656 193.359375 C 332.289062 194.078125 330.851562 194.078125 329.414062 193.359375 C 327.976562 192.644531 327.257812 191.207031 327.257812 189.769531 C 327.257812 188.332031 327.976562 186.894531 329.414062 186.175781 C 330.851562 185.457031 332.289062 185.457031 333.722656 186.175781 C 335.160156 186.894531 335.878906 188.332031 335.878906 189.769531 Z M 335.878906 189.769531 " fill-opacity="1" fill-rule="nonzero"/><path fill="#ffffff" d="M 62.898438 223.054688 L 64.8125 228.082031 L 57.867188 237.183594 L 69.125 239.335938 L 71.039062 244.367188 L 49.488281 252.507812 L 47.8125 247.71875 L 61.9375 242.449219 L 50.445312 239.816406 L 50.445312 239.578125 L 57.390625 230.238281 L 43.5 235.503906 L 41.824219 230.957031 Z M 62.898438 223.054688 " fill-opacity="1" fill-rule="nonzero"/><path fill="#ffffff" d="M 76.785156 254.902344 L 86.601562 269.269531 L 82.773438 271.902344 L 75.828125 261.605469 L 71.996094 264.242188 L 78.222656 273.339844 L 74.390625 275.972656 L 68.164062 266.875 L 64.09375 269.507812 L 71.039062 279.804688 L 67.207031 282.4375 L 57.390625 267.832031 Z M 76.785156 254.902344 " fill-opacity="1" fill-rule="nonzero"/><path fill="#ffffff" d="M 91.152344 290.582031 L 93.070312 276.933594 L 97.378906 281.003906 L 95.941406 289.863281 L 104.5625 287.707031 L 108.875 291.539062 L 95.703125 294.652344 L 93.789062 308.78125 L 89.476562 304.707031 L 90.914062 295.371094 L 81.8125 297.765625 L 77.503906 293.933594 Z M 91.152344 290.582031 " fill-opacity="1" fill-rule="nonzero"/><path fill="#ffffff" d="M 118.453125 298.484375 L 122.761719 301.117188 L 110.550781 320.753906 L 106.238281 318.117188 Z M 118.453125 298.484375 " fill-opacity="1" fill-rule="nonzero"/><path fill="#ffffff" d="M 136.171875 332.964844 C 134.496094 332.484375 133.296875 331.527344 132.101562 330.570312 C 130.902344 329.613281 129.945312 328.414062 129.464844 326.976562 C 128.75 325.542969 128.507812 324.105469 128.269531 322.667969 C 128.269531 320.992188 128.507812 319.554688 128.988281 317.878906 C 129.464844 316.441406 130.425781 315.003906 131.382812 313.808594 C 132.339844 312.609375 133.539062 311.652344 134.972656 310.933594 C 136.410156 310.214844 137.847656 309.976562 139.285156 309.738281 C 140.960938 309.738281 142.398438 309.976562 144.3125 310.457031 C 145.269531 310.695312 146.226562 311.175781 146.945312 311.652344 L 149.101562 313.089844 C 149.582031 313.570312 150.300781 314.289062 150.539062 314.765625 C 151.019531 315.484375 151.257812 315.964844 151.734375 316.683594 L 147.425781 319.078125 C 146.945312 318.117188 146.226562 317.160156 145.511719 316.441406 C 144.792969 315.722656 143.832031 315.246094 142.875 314.765625 C 141.917969 314.527344 140.960938 314.289062 140.242188 314.527344 C 139.285156 314.527344 138.566406 314.765625 137.609375 315.246094 C 136.890625 315.722656 136.171875 316.203125 135.453125 316.921875 C 134.734375 317.640625 134.496094 318.359375 134.015625 319.316406 C 133.777344 320.273438 133.539062 321.230469 133.539062 322.1875 C 133.539062 323.148438 133.777344 324.105469 134.015625 324.824219 C 134.253906 325.542969 134.734375 326.261719 135.453125 326.976562 C 136.171875 327.695312 136.890625 328.175781 137.847656 328.414062 C 139.042969 328.894531 140.242188 328.894531 141.199219 328.894531 C 142.15625 328.65625 143.355469 328.414062 144.3125 327.9375 L 146.226562 332.007812 C 145.511719 332.484375 144.792969 332.726562 143.832031 332.964844 C 143.117188 333.203125 142.15625 333.445312 141.4375 333.445312 L 138.804688 333.445312 C 138.328125 333.683594 137.367188 333.445312 136.171875 332.964844 Z M 136.171875 332.964844 " fill-opacity="1" fill-rule="nonzero"/><path fill="#ffffff" d="M 174.964844 331.289062 L 172.808594 323.625 L 168.976562 330.570312 Z M 171.371094 317.160156 L 175.921875 317.640625 L 182.867188 341.824219 L 177.597656 341.105469 L 176.160156 335.839844 L 166.582031 334.640625 L 163.949219 339.429688 L 158.917969 338.710938 Z M 171.371094 317.160156 " fill-opacity="1" fill-rule="nonzero"/><path fill="#ffffff" d="M 196.035156 318.597656 L 200.585938 318.117188 L 212.796875 331.289062 L 211.359375 317.160156 L 216.390625 316.683594 L 218.785156 339.667969 L 214.472656 340.148438 L 202.023438 326.738281 L 203.457031 341.347656 L 198.429688 341.824219 Z M 196.035156 318.597656 " fill-opacity="1" fill-rule="nonzero"/><path fill="#ffffff" d="M 254.464844 328.175781 C 252.789062 328.894531 251.109375 329.371094 249.675781 329.371094 C 248 329.371094 246.5625 329.132812 245.125 328.65625 C 243.6875 328.175781 242.492188 327.21875 241.292969 326.261719 C 240.097656 325.0625 239.136719 323.867188 238.660156 322.1875 C 237.941406 320.753906 237.703125 319.078125 237.703125 317.640625 C 237.703125 315.964844 237.941406 314.527344 238.417969 313.089844 C 238.898438 311.652344 239.855469 310.457031 240.8125 309.257812 C 242.011719 308.0625 243.207031 307.101562 244.886719 306.386719 C 245.84375 305.90625 246.800781 305.667969 247.519531 305.425781 C 248.238281 305.1875 249.195312 305.1875 249.914062 304.949219 L 252.070312 304.949219 C 252.789062 304.949219 253.503906 305.1875 254.222656 305.425781 L 252.789062 310.214844 C 252.308594 309.976562 251.589844 309.976562 251.109375 309.738281 L 249.675781 309.738281 C 249.195312 309.738281 248.714844 309.738281 248 309.976562 C 247.519531 310.214844 246.800781 310.214844 246.320312 310.457031 C 245.363281 310.933594 244.886719 311.414062 244.167969 312.132812 C 243.6875 312.851562 243.207031 313.570312 242.96875 314.289062 C 242.730469 315.003906 242.492188 315.964844 242.492188 316.921875 C 242.492188 317.878906 242.730469 318.835938 243.207031 319.554688 C 243.6875 320.511719 244.167969 321.230469 244.886719 321.949219 C 245.601562 322.667969 246.320312 323.148438 247.039062 323.386719 C 248 323.625 248.714844 323.867188 249.675781 323.867188 C 250.632812 323.867188 251.589844 323.625 252.546875 323.148438 C 254.222656 322.429688 255.421875 321.230469 256.378906 320.035156 L 254.941406 316.921875 L 250.394531 319.078125 L 248.957031 315.722656 L 258.054688 311.652344 L 262.125 320.753906 C 261.40625 322.1875 260.449219 323.625 259.253906 324.824219 C 258.054688 326.261719 256.617188 327.21875 254.464844 328.175781 Z M 254.464844 328.175781 " fill-opacity="1" fill-rule="nonzero"/><path fill="#ffffff" d="M 278.648438 298.960938 C 279.605469 298.242188 280.324219 297.285156 280.324219 296.566406 C 280.324219 295.847656 280.324219 294.890625 279.605469 294.171875 C 278.886719 293.214844 278.167969 292.976562 277.210938 292.976562 C 276.253906 292.976562 275.296875 293.453125 274.339844 294.171875 L 270.507812 296.808594 L 274.578125 302.074219 Z M 263.5625 296.328125 L 271.945312 289.863281 C 274.339844 288.1875 276.492188 287.226562 278.648438 287.46875 C 280.5625 287.707031 282 288.664062 283.4375 290.339844 C 284.636719 291.777344 285.113281 293.214844 285.113281 294.890625 C 285.113281 296.328125 284.636719 297.765625 283.917969 299.203125 L 293.496094 302.3125 L 288.707031 305.90625 L 280.324219 303.03125 L 277.210938 305.425781 L 281.761719 311.175781 L 277.691406 314.527344 Z M 263.5625 296.328125 " fill-opacity="1" fill-rule="nonzero"/><path fill="#ffffff" d="M 287.269531 275.972656 L 290.621094 272.144531 L 308.101562 287.226562 L 304.75 291.058594 Z M 287.269531 275.972656 " fill-opacity="1" fill-rule="nonzero"/><path fill="#ffffff" d="M 298.523438 261.605469 L 301.15625 257.296875 L 316.960938 266.636719 L 322.707031 256.816406 L 326.78125 259.210938 L 318.398438 273.578125 Z M 298.523438 261.605469 " fill-opacity="1" fill-rule="nonzero"/><path fill="#ffffff" d="M 310.976562 237.421875 L 312.652344 232.632812 L 330.132812 238.378906 L 333.722656 227.363281 L 338.035156 228.800781 L 332.765625 244.605469 Z M 310.976562 237.421875 " fill-opacity="1" fill-rule="nonzero"/><path fill="#ffffff" d="M 166.582031 229.519531 C 166.582031 228.5625 165.386719 225.925781 164.425781 224.96875 C 163.707031 224.25 162.992188 222.8125 162.273438 221.617188 C 161.3125 219.703125 159.878906 218.265625 159.160156 216.347656 C 158.203125 212.757812 156.523438 208.925781 154.847656 205.09375 C 154.609375 202.9375 153.652344 200.542969 153.414062 198.390625 C 153.171875 196.953125 153.171875 195.515625 153.171875 193.839844 C 153.171875 192.402344 153.414062 190.726562 153.414062 189.050781 L 153.414062 182.585938 C 153.414062 180.667969 154.371094 178.992188 154.371094 176.839844 C 154.371094 175.402344 156.765625 173.484375 157.242188 172.527344 C 162.992188 171.332031 167.300781 169.65625 173.289062 168.9375 C 181.1875 169.175781 181.667969 169.894531 185.5 170.371094 C 189.089844 171.089844 190.769531 173.246094 193.640625 175.164062 C 195.078125 175.878906 192.921875 178.035156 192.683594 179.472656 C 192.445312 180.667969 191.726562 181.628906 191.246094 182.585938 C 189.808594 185.9375 187.414062 188.8125 186.457031 192.402344 C 185.019531 195.515625 184.300781 196.234375 182.867188 200.066406 C 182.386719 201.023438 181.667969 202.9375 181.1875 203.898438 C 180.710938 205.09375 180.949219 209.644531 181.1875 211.082031 C 181.667969 212.757812 181.429688 214.433594 182.148438 216.109375 C 182.386719 216.589844 182.386719 217.066406 182.625 217.546875 C 182.867188 218.742188 183.34375 219.941406 183.582031 221.136719 C 184.78125 225.449219 186.21875 229.039062 187.894531 232.394531 C 188.851562 234.789062 190.289062 235.746094 187.414062 235.027344 C 186.21875 234.789062 186.21875 234.308594 185.5 233.589844 C 184.78125 232.871094 183.824219 232.394531 182.867188 231.675781 C 181.90625 230.957031 181.429688 229.996094 180.710938 229.28125 C 179.273438 227.84375 179.035156 226.40625 177.359375 224.730469 C 176.398438 220.179688 172.808594 215.390625 170.414062 210.601562 C 169.457031 208.6875 168.257812 207.25 167.300781 205.332031 C 166.582031 203.898438 165.863281 203.179688 165.386719 201.742188 C 164.90625 199.828125 165.144531 196.953125 165.144531 194.558594 C 164.667969 190.964844 164.425781 188.332031 165.625 184.980469 C 165.863281 180.191406 169.457031 181.148438 172.808594 181.386719 C 174.964844 181.386719 175.921875 181.386719 177.359375 182.347656 C 180.472656 184.742188 179.035156 184.5 179.035156 188.09375 C 179.035156 189.769531 178.792969 191.445312 177.835938 192.882812 C 176.878906 194.558594 176.160156 196.472656 175.203125 198.390625 C 174.964844 198.628906 174.964844 195.753906 174.964844 195.039062 C 174.964844 193.359375 173.527344 192.164062 172.089844 192.402344 C 169.933594 192.882812 169.933594 193.839844 168.976562 195.996094 C 168.5 197.191406 169.457031 199.585938 169.695312 201.023438 C 170.414062 204.375 173.046875 206.769531 176.160156 205.574219 C 177.117188 204.617188 178.078125 203.179688 178.078125 201.980469 C 178.078125 200.304688 179.035156 198.628906 179.753906 196.953125 C 180.472656 195.039062 181.429688 192.882812 182.386719 191.207031 C 183.34375 188.09375 185.5 185.21875 183.582031 181.628906 C 182.386719 178.753906 181.1875 176.597656 178.078125 175.640625 C 176.878906 175.402344 173.046875 175.402344 171.851562 175.640625 C 168.019531 175.640625 165.144531 176.839844 161.554688 177.796875 C 160.355469 178.035156 160.355469 179.710938 160.117188 180.910156 C 159.636719 182.585938 159.636719 184.5 159.160156 186.175781 C 158.679688 188.332031 159.398438 190.964844 158.679688 193.121094 C 158.203125 194.558594 158.203125 198.148438 158.917969 199.828125 C 159.878906 201.742188 160.117188 203.898438 161.554688 205.8125 C 163.949219 208.925781 164.425781 212.277344 166.820312 215.152344 C 168.5 217.066406 168.738281 218.984375 169.933594 221.136719 C 170.175781 221.378906 170.175781 221.855469 170.414062 222.097656 C 171.609375 224.492188 174.246094 227.601562 175.683594 229.996094 C 176.640625 231.675781 178.316406 233.828125 179.753906 234.789062 C 181.1875 235.984375 182.386719 237.421875 183.582031 238.859375 C 191.007812 243.648438 196.273438 244.367188 198.910156 242.210938 C 200.105469 241.011719 197.472656 239.097656 196.992188 238.617188 C 194.839844 236.464844 193.164062 233.351562 191.964844 229.996094 C 191.246094 227.363281 190.050781 224.96875 188.851562 222.8125 C 187.65625 219.222656 186.457031 215.390625 186.21875 211.558594 C 186.21875 209.40625 185.976562 207.96875 186.457031 205.8125 C 186.9375 201.023438 191.246094 196.953125 192.203125 193.359375 C 193.402344 191.925781 194.121094 190.726562 194.597656 188.8125 C 197.953125 185.9375 200.585938 180.667969 202.261719 176.121094 C 202.5 174.921875 200.585938 173.246094 200.105469 172.289062 C 199.628906 171.332031 197.710938 169.894531 196.753906 168.9375 C 195.796875 167.976562 195.558594 166.78125 194.597656 165.824219 C 193.640625 164.867188 191.964844 163.667969 190.769531 164.148438 C 189.332031 164.867188 189.089844 166.300781 187.414062 166.300781 L 183.34375 166.300781 C 181.1875 166.300781 178.792969 165.582031 176.398438 165.105469 C 174.964844 164.867188 171.609375 163.90625 170.175781 163.1875 C 168.976562 162.472656 167.0625 163.1875 165.386719 163.429688 C 157.484375 165.105469 149.339844 162.230469 148.863281 171.570312 C 148.144531 175.640625 146.945312 178.992188 146.707031 183.0625 C 146.46875 188.332031 146.707031 194.078125 146.707031 199.585938 C 146.707031 201.742188 147.1875 203.65625 147.90625 205.574219 C 148.863281 208.207031 150.539062 210.363281 151.734375 212.996094 C 156.046875 219.222656 159.636719 224.011719 163.230469 227.84375 C 165.386719 229.28125 164.1875 227.125 166.582031 229.519531 Z M 166.582031 229.519531 " fill-opacity="1" fill-rule="nonzero"/><path fill="#ffffff" d="M 177.359375 153.371094 L 166.101562 144.273438 C 165.625 144.273438 165.386719 144.511719 164.90625 144.511719 C 160.835938 145.46875 153.171875 144.75 150.058594 146.90625 C 144.550781 150.019531 140.960938 155.527344 137.128906 159.359375 C 135.933594 160.078125 136.410156 162.949219 135.933594 164.386719 C 134.972656 166.78125 135.214844 169.414062 134.253906 171.808594 C 133.296875 174.445312 133.296875 178.273438 133.296875 181.386719 C 133.296875 185.699219 133.539062 190.007812 133.539062 194.320312 C 133.539062 197.433594 134.253906 203.179688 134.972656 206.050781 C 134.972656 214.195312 153.414062 233.109375 163.949219 251.308594 C 165.386719 254.183594 166.582031 254.421875 169.214844 254.902344 C 169.695312 254.902344 170.414062 255.140625 170.894531 255.140625 C 174.722656 255.621094 176.640625 257.773438 180.710938 257.773438 C 182.625 257.773438 184.78125 258.734375 186.695312 259.210938 C 188.613281 259.691406 191.726562 259.453125 193.640625 259.453125 C 196.992188 259.453125 200.585938 259.210938 203.9375 259.210938 C 205.851562 259.210938 207.53125 259.691406 209.207031 259.210938 C 210.882812 258.734375 213.039062 259.210938 214.714844 259.210938 C 216.390625 259.210938 218.542969 258.492188 220.460938 258.492188 C 221.65625 258.492188 223.8125 255.378906 225.011719 254.902344 C 227.644531 253.703125 229.082031 250.832031 230.519531 248.4375 C 231.476562 246.761719 232.433594 244.84375 232.914062 242.929688 C 233.390625 241.011719 232.914062 239.097656 230.996094 238.617188 C 229.320312 238.140625 228.839844 237.183594 227.164062 236.941406 C 225.488281 236.464844 224.53125 236.464844 223.09375 235.503906 C 220.9375 233.828125 218.066406 232.152344 215.910156 230.238281 C 213.753906 228.5625 211.121094 226.886719 208.488281 225.449219 C 206.8125 224.492188 206.570312 223.53125 204.894531 224.011719 C 203.21875 224.25 202.5 220.179688 203.21875 217.066406 C 203.699219 214.671875 202.742188 214.195312 202.023438 212.519531 C 200.347656 208.445312 198.429688 210.601562 202.5 207.011719 C 205.136719 205.09375 207.289062 199.585938 208.964844 196.714844 C 211.601562 192.644531 215.433594 188.09375 215.433594 184.023438 C 216.867188 181.867188 218.304688 176.839844 217.585938 174.203125 C 217.347656 171.332031 214.234375 165.824219 211.601562 161.035156 C 207.289062 158.398438 206.8125 150.976562 202.742188 149.0625 C 201.542969 148.820312 199.867188 149.0625 199.148438 149.300781 C 197.953125 149.539062 196.515625 153.371094 195.316406 153.371094 C 199.148438 157.441406 202.023438 161.992188 205.136719 166.0625 C 207.289062 170.613281 209.925781 173.246094 209.683594 178.515625 C 208.964844 185.457031 204.175781 191.925781 202.5 195.039062 C 202.261719 195.515625 199.867188 198.867188 199.628906 199.347656 C 198.667969 201.261719 198.429688 201.023438 197.710938 202.699219 C 196.992188 204.136719 195.796875 205.574219 195.316406 207.011719 C 194.597656 208.445312 195.316406 212.757812 195.558594 214.195312 C 196.035156 216.347656 197.710938 215.871094 198.191406 218.265625 C 198.667969 219.941406 198.191406 222.574219 198.191406 224.492188 C 198.191406 226.167969 198.429688 229.039062 198.429688 230.714844 C 198.429688 232.394531 200.824219 231.195312 202.261719 231.433594 C 204.417969 231.914062 205.136719 234.789062 207.769531 235.746094 C 210.164062 236.703125 214.953125 241.011719 216.867188 242.449219 C 218.785156 243.886719 217.109375 241.492188 216.390625 244.125 C 209.445312 249.15625 200.347656 249.632812 191.726562 249.15625 C 174.722656 247.71875 173.527344 249.394531 167.0625 241.730469 C 157.960938 229.996094 149.582031 218.984375 141.199219 205.8125 C 140.960938 197.433594 141.199219 187.375 141.679688 178.992188 C 141.679688 174.203125 142.875 173.246094 142.875 168.457031 C 144.074219 161.753906 149.820312 157.441406 155.089844 155.765625 C 162.511719 153.609375 169.933594 153.371094 177.359375 153.371094 Z M 177.359375 153.371094 " fill-opacity="1" fill-rule="nonzero"/><path fill="#ffffff" d="M 161.792969 141.160156 C 158.917969 139.722656 155.566406 140.203125 152.695312 140.679688 C 151.734375 140.441406 155.089844 139.003906 155.808594 138.285156 C 157.003906 136.847656 158.917969 136.371094 160.597656 135.652344 C 162.992188 135.890625 166.820312 137.089844 169.457031 138.046875 C 171.851562 138.523438 174.964844 139.484375 177.359375 139.484375 C 185.976562 131.582031 196.035156 123.4375 205.851562 116.015625 C 207.289062 115.296875 220.699219 113.382812 224.292969 113.621094 C 226.6875 114.820312 229.558594 113.859375 230.996094 116.015625 C 233.390625 119.609375 239.378906 124.636719 238.417969 127.511719 C 238.417969 131.101562 237.222656 134.695312 236.265625 138.285156 C 236.265625 138.285156 230.757812 138.765625 230.519531 138.765625 L 226.925781 138.765625 C 225.488281 138.765625 225.011719 138.523438 224.53125 138.285156 C 226.925781 136.609375 228.363281 135.414062 230.519531 132.777344 C 231.234375 132.058594 230.277344 130.144531 230.039062 129.425781 C 229.082031 126.550781 227.164062 124.15625 226.207031 121.285156 C 221.898438 121.523438 216.390625 121.285156 212.078125 122.480469 C 210.644531 123.199219 208.964844 123.679688 207.769531 124.875 C 205.375 127.511719 204.65625 127.511719 200.824219 131.582031 C 201.304688 135.414062 198.910156 139.003906 199.386719 142.835938 C 201.304688 147.144531 200.585938 145.949219 207.289062 146.667969 C 208.488281 146.90625 210.402344 146.425781 211.121094 146.90625 C 211.359375 147.144531 211.359375 147.386719 211.121094 147.625 C 210.882812 148.101562 210.882812 150.257812 208.964844 151.214844 C 207.289062 152.175781 202.980469 152.652344 201.0625 153.132812 C 200.824219 153.132812 200.347656 153.371094 200.105469 153.371094 C 198.910156 153.609375 198.191406 153.851562 196.753906 154.089844 C 192.921875 154.570312 191.484375 157.203125 189.089844 158.878906 C 187.414062 159.835938 184.300781 159.597656 181.667969 159.597656 C 180.230469 159.597656 179.753906 159.359375 178.792969 158.878906 C 178.078125 158.398438 177.835938 156.964844 177.597656 156.246094 C 177.359375 155.527344 175.683594 154.089844 175.203125 153.609375 C 174.722656 152.175781 174.003906 152.175781 173.046875 151.214844 C 171.851562 150.019531 170.894531 149.0625 169.457031 147.863281 C 168.5 147.144531 168.257812 146.425781 167.300781 145.46875 C 165.386719 143.554688 164.425781 141.878906 161.792969 141.160156 Z M 161.792969 141.160156 " fill-opacity="1" fill-rule="nonzero"/></svg>