<svg xmlns="http://www.w3.org/2000/svg" xmlns:xlink="http://www.w3.org/1999/xlink" width="500" zoomAndPan="magnify" viewBox="0 0 375 374.999991" height="500" preserveAspectRatio="xMidYMid meet" version="1.0"><defs><clipPath id="a0f7030474"><path d="M 11 10 L 355 10 L 355 349 L 11 349 Z M 11 10 " clip-rule="nonzero"/></clipPath><clipPath id="99ed53fdc0"><path d="M -42.867188 100.648438 L 318.699219 -47.527344 L 450.664062 274.484375 L 89.097656 422.65625 Z M -42.867188 100.648438 " clip-rule="nonzero"/></clipPath><clipPath id="ed14d9a9d5"><path d="M -42.867188 100.648438 L 318.699219 -47.527344 L 450.664062 274.484375 L 89.097656 422.65625 Z M -42.867188 100.648438 " clip-rule="nonzero"/></clipPath><clipPath id="7239b81203"><path d="M -42.867188 100.648438 L 318.699219 -47.527344 L 450.664062 274.484375 L 89.097656 422.65625 Z M -42.867188 100.648438 " clip-rule="nonzero"/></clipPath><clipPath id="f9ba296a2c"><path d="M 215.851562 37.5 L 315.601562 37.5 L 315.601562 137.25 L 215.851562 137.25 Z M 215.851562 37.5 " clip-rule="nonzero"/></clipPath></defs><g clip-path="url(#a0f7030474)"><g clip-path="url(#99ed53fdc0)"><g clip-path="url(#ed14d9a9d5)"><g clip-path="url(#7239b81203)"><path fill="#c6302c" d="M 341.976562 57.128906 C 284.152344 -30.972656 166.925781 15.199219 174.855469 116.464844 C 109.441406 38.761719 -6.476562 88.132812 14.15625 191.476562 C 32.875 285.234375 269.808594 348.164062 269.808594 348.164062 C 269.808594 348.164062 394.441406 137.0625 341.976562 57.128906 Z M 341.976562 57.128906 " fill-opacity="1" fill-rule="nonzero"/></g></g></g></g><g clip-path="url(#f9ba296a2c)"><path fill="#ffffff" d="M 265.726562 37.5 C 260.867188 78.574219 256.925781 82.515625 215.851562 87.375 C 215.9375 87.386719 216.023438 87.394531 216.109375 87.40625 C 256.941406 92.253906 260.878906 96.261719 265.726562 137.25 C 270.589844 96.175781 274.53125 92.234375 315.601562 87.375 C 274.53125 82.515625 270.589844 78.574219 265.726562 37.5 Z M 265.726562 37.5 " fill-opacity="1" fill-rule="nonzero"/></g></svg>